<?xml version="1.0" standalone="no"?>
<!DOCTYPE svg PUBLIC "-//W3C//DTD SVG 20010904//EN"
 "http://www.w3.org/TR/2001/REC-SVG-20010904/DTD/svg10.dtd">
<svg version="1.0" xmlns="http://www.w3.org/2000/svg"
 width="1484.000000pt" height="1484.000000pt" viewBox="0 0 1484.000000 1484.000000"
 preserveAspectRatio="xMidYMid meet">
<metadata>
Created by potrace 1.11, written by Peter Selinger 2001-2013
</metadata>
<g transform="translate(0.000000,1484.000000) scale(0.100000,-0.100000)"
fill="#000000" stroke="none">
<path d="M3462 14198 c-12 -68 -24 -136 -27 -153 -3 -16 -10 -50 -15 -75 -5
-25 -14 -72 -20 -105 -5 -33 -12 -71 -15 -85 -3 -14 -9 -50 -15 -80 -6 -30
-12 -66 -15 -80 -3 -14 -8 -41 -11 -60 -3 -19 -25 -141 -49 -270 -24 -129 -46
-248 -49 -265 -3 -16 -8 -41 -11 -55 -3 -14 -8 -41 -11 -60 -2 -19 -9 -55 -14
-80 -5 -25 -14 -72 -20 -105 -6 -33 -13 -71 -16 -85 -40 -212 -54 -291 -60
-324 -3 -21 -8 -48 -10 -60 -9 -47 -36 -193 -40 -216 -3 -14 -7 -38 -11 -55
-3 -16 -7 -37 -8 -45 -1 -8 -5 -28 -8 -45 -4 -16 -9 -43 -12 -60 -3 -16 -20
-113 -39 -215 -19 -102 -37 -198 -40 -215 -3 -16 -11 -57 -17 -90 -6 -33 -15
-80 -19 -105 -5 -25 -18 -94 -29 -155 -11 -60 -38 -207 -60 -325 -22 -118 -43
-228 -46 -245 -3 -16 -7 -43 -10 -60 -3 -16 -10 -55 -16 -85 -6 -30 -13 -68
-15 -85 -3 -16 -16 -86 -29 -155 -28 -144 -33 -172 -41 -219 -3 -18 -8 -43
-11 -55 -2 -11 -6 -32 -8 -46 -1 -14 -11 -65 -20 -115 -9 -49 -19 -101 -21
-115 -3 -14 -13 -70 -24 -125 -11 -55 -22 -116 -25 -135 -3 -19 -19 -105 -35
-190 -16 -85 -32 -168 -34 -185 -8 -44 -85 -456 -90 -481 -2 -12 -7 -39 -10
-60 -4 -22 -18 -97 -31 -169 -13 -71 -27 -146 -30 -165 -3 -19 -10 -54 -16
-78 -5 -23 -12 -59 -15 -80 -3 -20 -7 -44 -9 -52 -3 -8 -7 -33 -10 -55 -3 -22
-10 -60 -15 -85 -10 -49 -56 -297 -64 -345 -3 -16 -7 -39 -9 -50 -5 -20 -32
-164 -41 -220 -3 -16 -8 -41 -11 -55 -2 -14 -6 -36 -9 -50 -5 -33 -25 -138
-31 -170 -3 -14 -10 -54 -16 -89 -5 -36 -12 -67 -14 -71 -2 -3 -6 -24 -9 -46
-3 -21 -17 -100 -31 -174 -27 -145 -29 -156 -45 -240 -6 -30 -12 -66 -15 -80
-6 -27 -11 -54 -20 -110 -8 -46 -72 -398 -79 -430 -3 -14 -10 -52 -16 -85 -6
-33 -24 -130 -40 -215 -16 -85 -32 -171 -35 -190 -3 -19 -12 -67 -20 -107 -8
-39 -17 -89 -20 -110 -3 -21 -10 -58 -15 -83 -5 -25 -19 -97 -30 -160 -33
-185 -60 -333 -66 -357 l-4 -23 1285 0 c1021 0 1285 3 1286 13 1 16 6 46 24
142 8 44 17 96 20 115 3 19 17 98 31 175 15 77 28 150 30 163 2 12 6 33 9 47
12 62 56 310 60 340 2 11 10 56 19 100 8 44 18 96 21 115 3 19 12 71 21 115 8
44 17 96 20 115 2 19 7 46 10 60 3 14 7 34 9 45 10 56 26 143 30 165 3 14 12
68 21 120 9 52 18 104 20 115 7 36 24 129 29 160 3 17 10 53 15 80 5 28 12 64
15 80 6 36 33 190 40 225 2 14 13 75 24 135 69 378 83 449 106 529 59 205 118
319 232 451 94 109 178 152 333 172 25 4 1826 7 4004 7 l3958 1 -6 100 c-3 55
-8 111 -10 125 -2 14 -7 50 -11 80 -3 30 -17 111 -31 180 -14 69 -27 134 -30
145 -8 44 -74 255 -102 330 -104 274 -232 512 -370 684 -149 185 -417 453
-693 692 -180 156 -227 196 -384 325 -305 250 -1022 801 -1031 792 -1 -2 -5
-21 -8 -43 -4 -22 -16 -92 -27 -156 -11 -63 -21 -130 -24 -148 -2 -18 -6 -44
-10 -59 -9 -43 -14 -73 -20 -117 -4 -22 -15 -94 -27 -160 -11 -66 -21 -129
-23 -140 -8 -52 -17 -102 -21 -117 -5 -17 -136 -18 -2560 -18 l-2556 0 6 28
c4 15 9 41 11 57 3 17 8 41 10 55 3 14 7 36 10 50 2 14 11 66 20 115 8 50 17
104 20 120 3 17 12 64 20 105 7 41 16 91 19 110 3 19 8 46 10 60 3 14 26 140
51 280 25 140 52 291 60 335 8 44 17 94 19 110 3 17 7 40 10 52 2 11 8 43 12
70 5 26 9 50 9 53 1 3 5 28 10 55 5 28 10 52 10 55 1 3 5 25 9 50 5 25 10 54
12 65 19 102 30 164 38 215 3 19 14 82 25 140 11 58 23 123 26 145 4 22 12 72
20 110 7 39 16 86 19 105 3 19 8 46 11 60 6 29 79 439 99 560 7 38 23 123 29
155 7 34 16 88 22 130 4 22 8 47 10 55 3 8 7 32 11 54 3 21 8 48 10 60 2 11 9
48 14 81 6 33 13 72 16 88 l6 27 -1274 0 -1274 0 -22 -122z"/>
<path d="M10670 7236 c0 -2 -7 -39 -15 -82 -8 -44 -17 -96 -21 -118 -3 -21 -8
-48 -10 -60 -6 -33 -24 -128 -29 -161 -7 -36 -33 -182 -39 -211 -2 -12 -7 -39
-11 -60 -6 -39 -12 -72 -19 -109 -2 -11 -7 -40 -11 -65 -4 -25 -9 -54 -11 -65
-10 -53 -25 -133 -29 -160 -3 -16 -8 -41 -11 -55 -3 -14 -7 -36 -9 -50 -2 -14
-20 -113 -39 -220 -20 -107 -46 -247 -57 -310 -12 -63 -22 -119 -24 -125 -1
-5 -5 -32 -9 -60 -8 -52 -13 -80 -21 -117 -11 -55 -76 -416 -130 -723 -81
-464 -155 -670 -292 -821 -23 -27 -43 -52 -43 -56 0 -17 -110 -89 -172 -112
-36 -14 -101 -29 -144 -33 -44 -4 -1854 -8 -4023 -8 l-3943 1 6 -101 c4 -55 8
-111 10 -125 2 -14 6 -50 10 -80 54 -439 257 -967 495 -1285 153 -205 436
-490 786 -791 44 -38 82 -71 85 -74 3 -3 57 -48 120 -100 63 -52 117 -97 120
-100 7 -8 276 -223 420 -335 156 -123 614 -464 617 -461 2 2 120 693 137 806
11 69 26 144 31 148 9 9 5556 4 5670 -5 157 -13 608 -4 635 12 3 1 36 6 75 10
38 4 72 8 75 10 3 1 28 6 55 9 78 11 282 61 386 96 117 40 293 124 379 182
182 123 385 338 487 517 86 150 165 383 198 583 3 18 15 80 26 137 11 57 23
118 25 135 2 17 8 54 13 81 8 41 65 357 86 480 2 17 7 41 10 55 3 14 16 88 30
165 14 77 27 151 30 165 2 14 13 77 25 140 11 63 23 129 26 145 4 25 47 260
68 380 3 17 8 40 10 51 2 12 7 37 10 55 3 19 8 48 11 64 3 17 14 77 25 135 11
58 21 116 24 130 2 14 9 52 15 85 6 33 13 74 16 90 3 17 10 50 15 75 5 25 14
72 19 105 9 55 35 201 45 250 10 49 36 193 41 225 3 19 8 46 10 60 3 14 7 36
10 50 3 14 7 36 10 50 2 14 7 41 10 60 3 19 8 42 10 50 2 8 6 33 10 55 10 69
16 99 22 120 3 11 7 31 8 45 3 22 63 355 100 550 18 94 21 109 45 250 12 63
23 122 25 130 4 15 33 171 41 225 3 17 7 40 9 53 l5 22 -1285 0 c-707 0 -1285
-2 -1285 -4z"/>
</g>
</svg>
