<svg xmlns="http://www.w3.org/2000/svg" xmlns:xlink="http://www.w3.org/1999/xlink" viewBox="0 0 224.12 231.66"><defs><style>.cls-1{fill:#231f20;filter:url(#luminosity-noclip);}.cls-2{fill:#05c7c8;}.cls-3,.cls-9{fill:#fff;}.cls-4{fill:#01c5f5;}.cls-5{fill:#2a425c;}.cls-6{fill:#e6e8ee;}.cls-7{fill:#d1b047;}.cls-8{fill:#ead48c;}.cls-13,.cls-14,.cls-15,.cls-16,.cls-17,.cls-19,.cls-31,.cls-9{fill-rule:evenodd;}.cls-10{fill:none;stroke:#d1b047;stroke-miterlimit:10;stroke-width:0.77px;}.cls-11,.cls-19,.cls-20,.cls-25{fill:#444141;}.cls-12{mask:url(#mask);}.cls-13{fill:#03868b;}.cls-14{fill:#058c8c;}.cls-15{fill:url(#linear-gradient);}.cls-16{fill:#0b8a8e;}.cls-17{fill:url(#linear-gradient-2);}.cls-18{fill:url(#linear-gradient-3);}.cls-20{font-size:1.86px;}.cls-20,.cls-25{font-family:Calibri-LightItalic, Calibri;font-style:italic;}.cls-21{letter-spacing:-0.01em;}.cls-22{letter-spacing:-0.01em;}.cls-23{letter-spacing:-0.02em;}.cls-24{letter-spacing:0.01em;}.cls-25{font-size:4.09px;letter-spacing:0em;}.cls-26{letter-spacing:0.02em;}.cls-27{letter-spacing:0.01em;}.cls-28{letter-spacing:0.01em;}.cls-29{letter-spacing:0.02em;}.cls-30{letter-spacing:0.02em;}.cls-31{fill:#edeced;}.cls-32{fill:#c8c8cb;}.cls-33{fill:#eee;}</style><filter id="luminosity-noclip" x="53.56" y="0" width="112.11" height="231.66" filterUnits="userSpaceOnUse" color-interpolation-filters="sRGB"><feFlood flood-color="#fff" result="bg"/><feBlend in="SourceGraphic" in2="bg"/></filter><mask id="mask" x="53.56" y="0" width="112.11" height="231.66" maskUnits="userSpaceOnUse"><path class="cls-1" d="M150.79,5.31a9.57,9.57,0,0,1,9.56,9.57V218.64a7.7,7.7,0,0,1-7.7,7.7H66.57a7.71,7.71,0,0,1-7.7-7.7V14.88a9.57,9.57,0,0,1,9.56-9.57h82.36m0-5.31H68.43A14.91,14.91,0,0,0,53.56,14.88V218.64a13.05,13.05,0,0,0,13,13h86.08a13.06,13.06,0,0,0,13-13V14.88A14.92,14.92,0,0,0,150.79,0Z"/></mask><linearGradient id="linear-gradient" x1="57.53" y1="207.43" x2="119.49" y2="207.43" gradientUnits="userSpaceOnUse"><stop offset="0" stop-color="#0b8a8e"/><stop offset="1" stop-color="#009090"/></linearGradient><linearGradient id="linear-gradient-2" x1="121.2" y1="158.2" x2="121.2" y2="13.06" xlink:href="#linear-gradient"/><linearGradient id="linear-gradient-3" x1="62.64" y1="48.6" x2="120.22" y2="48.6" xlink:href="#linear-gradient"/></defs><title>Asset 1</title><g id="Layer_2" data-name="Layer 2"><g id="Layer_1-2" data-name="Layer 1"><path class="cls-2" d="M120.06,98.51a8.59,8.59,0,1,1,1.24-17.08,2.18,2.18,0,0,0,.14,1.57,2.14,2.14,0,0,0,1.25,1.09,2.1,2.1,0,0,0,.7.12,2.2,2.2,0,0,0,1.89-1.1,8.59,8.59,0,0,1-5.22,15.4Z"/><path class="cls-3" d="M120.06,81.45a8.26,8.26,0,0,1,1.1.08,2.29,2.29,0,0,0,1.5,2.67,2.24,2.24,0,0,0,.73.12,2.32,2.32,0,0,0,1.92-1,8.46,8.46,0,1,1-5.25-1.83m0-.22a8.7,8.7,0,1,0,5.18,1.71,2.06,2.06,0,0,1-1.85,1.16,2.17,2.17,0,0,1-.66-.11,2.06,2.06,0,0,1-1.29-2.62,0,0,0,0,1,0,0,9.41,9.41,0,0,0-1.39-.11Z"/><path class="cls-2" d="M123.18,89.27a8.59,8.59,0,1,1,1.24-17.08,2.17,2.17,0,0,0,1.39,2.66,2.1,2.1,0,0,0,.7.12,2.2,2.2,0,0,0,1.89-1.1,8.59,8.59,0,0,1-5.22,15.4Z"/><path class="cls-3" d="M123.18,72.22a8.23,8.23,0,0,1,1.1.07,2.29,2.29,0,0,0,2.23,2.79,2.32,2.32,0,0,0,1.92-1,8.48,8.48,0,1,1-5.25-1.82m0-.23a8.7,8.7,0,1,0,5.18,1.71,2.06,2.06,0,0,1-1.85,1.16,2.17,2.17,0,0,1-.66-.11,2.06,2.06,0,0,1-1.29-2.61s0,0,0,0a9.41,9.41,0,0,0-1.39-.11Z"/><rect class="cls-3" x="104.88" y="68.83" width="74" height="2.6" transform="translate(30.04 182.12) rotate(-71.34)"/><rect class="cls-4" x="91.58" y="59.16" width="126.81" height="79.86" rx="5.72" ry="5.72" transform="matrix(0.65, -0.76, 0.76, 0.65, -20.86, 153.09)"/><rect class="cls-3" x="97.95" y="103.15" width="94.1" height="2.6" transform="translate(-28.47 147.37) rotate(-49.66)"/><rect class="cls-3" x="101.49" y="105.11" width="98.62" height="2.6" transform="translate(-27.92 152.48) rotate(-49.66)"/><rect class="cls-3" x="114.99" y="128.9" width="45.37" height="2.6" transform="translate(-50.68 150.86) rotate(-49.66)"/><path class="cls-3" d="M152.28,152.35c1.32,1.12,1.63,2.22.9,3.08s-1.79.67-3.08-.41-1.54-2.27-.87-3.06S151.05,151.3,152.28,152.35Zm-1.73,2.15c1,.86,1.85,1,2.25.56s0-1.33-.94-2.17-1.79-1.09-2.25-.55S149.5,153.61,150.55,154.5Z"/><path class="cls-3" d="M155.08,149.05c1.32,1.12,1.63,2.23.9,3.09s-1.79.66-3.08-.41-1.54-2.28-.87-3.06S153.85,148,155.08,149.05Zm-1.73,2.16c1,.85,1.85,1,2.25.55s.05-1.32-.94-2.17-1.79-1.09-2.25-.55S152.3,150.31,153.35,151.21Z"/><path class="cls-3" d="M157.88,145.75c1.32,1.12,1.63,2.23.9,3.09s-1.79.66-3.08-.41-1.54-2.28-.87-3.06S156.65,144.7,157.88,145.75Zm-1.73,2.16c1,.85,1.85,1,2.25.55s0-1.32-.94-2.16-1.79-1.1-2.25-.56S155.1,147,156.15,147.91Z"/><path class="cls-3" d="M160.68,142.45c1.32,1.12,1.63,2.23.9,3.09s-1.78.67-3.08-.41-1.54-2.27-.87-3.06S159.45,141.4,160.68,142.45ZM159,144.61c1,.85,1.85,1,2.25.55s.05-1.32-.94-2.16-1.79-1.1-2.25-.56S157.9,143.71,159,144.61Z"/><path class="cls-3" d="M167.31,134.64c1.32,1.12,1.63,2.23.9,3.09s-1.78.67-3.08-.41-1.54-2.27-.87-3.06S166.08,133.6,167.31,134.64Zm-1.73,2.16c1,.86,1.85,1,2.25.56s0-1.33-.94-2.17-1.79-1.1-2.25-.55S164.53,135.9,165.58,136.8Z"/><path class="cls-3" d="M168.88,134.82a1.44,1.44,0,0,1-.38-1.65h0a1.26,1.26,0,0,1-1.39-.13,1.42,1.42,0,0,1,0-2.07,1.31,1.31,0,0,1,1.91-.32,1.29,1.29,0,0,1,.36,1.41h0a1.42,1.42,0,0,1,1.67.07,1.58,1.58,0,0,1,0,2.28A1.51,1.51,0,0,1,168.88,134.82Zm1.75-2.11c-.47-.4-1-.27-1.57.13a1.11,1.11,0,0,0,.21,1.38.93.93,0,0,0,1.39-.15A.92.92,0,0,0,170.63,132.71Zm-3.16-.2c.38.33.84.21,1.34-.14a1,1,0,0,0-.2-1.18.78.78,0,0,0-1.19.12A.8.8,0,0,0,167.47,132.51Z"/><path class="cls-3" d="M172.92,128.05c1.31,1.12,1.63,2.22.9,3.08s-1.79.67-3.09-.41-1.53-2.27-.87-3.06S171.68,127,172.92,128.05Zm-1.73,2.15c1,.86,1.84,1,2.25.56s0-1.33-.95-2.17-1.78-1.09-2.25-.55S170.13,129.31,171.19,130.2Z"/><path class="cls-3" d="M175.72,124.75c1.31,1.12,1.63,2.23.9,3.08s-1.79.67-3.08-.4-1.54-2.28-.88-3.06S174.48,123.7,175.72,124.75ZM174,126.91c1,.85,1.84,1,2.25.55s0-1.32-1-2.17-1.78-1.09-2.25-.55S172.93,126,174,126.91Z"/><path class="cls-3" d="M179.72,117.18v0l-.21,1-.49-.24.27-1.23.38-.45,3.88,3.29-.43.51Z"/><path class="cls-3" d="M184.94,117.9l-.32-.27-.05-.75c-.1-1.79-.23-2.67-.81-3.17a.91.91,0,0,0-1.41.13,1.75,1.75,0,0,0-.37,1.1l-.51-.15a2.23,2.23,0,0,1,.54-1.43,1.43,1.43,0,0,1,2.13-.23c.72.61.86,1.62,1,3.11l0,.55h0l1.48-1.74.43.37Z"/><path class="cls-3" d="M187.24,114a2.32,2.32,0,0,0,1-.65,1,1,0,0,0,0-1.52c-.55-.45-1.19-.16-1.63.34l-.24.3-.4-.34.25-.29a1,1,0,0,0,.08-1.42.76.76,0,0,0-1.16.18,1.81,1.81,0,0,0-.4,1l-.5-.18a2.36,2.36,0,0,1,.56-1.27,1.23,1.23,0,0,1,2.17,1.17h0a1.32,1.32,0,0,1,1.73,0,1.61,1.61,0,0,1,0,2.4,2.56,2.56,0,0,1-1.12.78Z"/><path class="cls-3" d="M191.92,109.68l-1.06-.89-1.53,1.8-.34-.3-1-3.83.48-.57,2.41,2,.46-.54.41.35-.46.54,1.06.9Zm-1.47-1.24-1.29-1.1c-.21-.17-.4-.35-.6-.54v0c.12.31.21.55.3.81l.51,2.07h0Z"/><path class="cls-3" d="M195.7,98.27l-1.26,1.47.87,1c.07-.1.13-.19.25-.34a2,2,0,0,1,.92-.65,1.42,1.42,0,0,1,1.46.29,1.75,1.75,0,0,1,.1,2.56,2.5,2.5,0,0,1-1.06.77l-.28-.47a2.32,2.32,0,0,0,.91-.65,1.12,1.12,0,0,0-.06-1.63c-.5-.42-1.14-.39-1.8.38a5.72,5.72,0,0,0-.42.58l-1.65-1.83,1.58-1.86Z"/><path class="cls-3" d="M198.34,95a3.33,3.33,0,0,0-.31.41,2.06,2.06,0,0,0,.24,2.52v0a1.56,1.56,0,0,1,2.6-1.42,1.7,1.7,0,0,1,.27,2.45c-.71.83-1.81.82-2.82,0a3.24,3.24,0,0,1-1.19-2.14,2.77,2.77,0,0,1,.48-1.73,3.82,3.82,0,0,1,.29-.41Zm2.11,2a1,1,0,0,0-1.56,0,1.13,1.13,0,0,0-.16,1.16.56.56,0,0,0,.18.25c.65.54,1.37.64,1.83.09A1,1,0,0,0,200.45,97.06Z"/><path class="cls-3" d="M201,91.09l.35.29,2.1,4.69-.46.54L201,92h0l-1.61,1.9-.43-.37Z"/><path class="cls-3" d="M204.55,92.81a1.44,1.44,0,0,1-.38-1.65h0a1.26,1.26,0,0,1-1.39-.12,1.42,1.42,0,0,1,0-2.08,1.31,1.31,0,0,1,1.91-.31A1.27,1.27,0,0,1,205,90l0,0a1.42,1.42,0,0,1,1.67.07,1.56,1.56,0,0,1,0,2.27A1.49,1.49,0,0,1,204.55,92.81Zm1.75-2.1c-.47-.4-1-.27-1.57.13a1.1,1.1,0,0,0,.2,1.38,1,1,0,0,0,1.4-.15A.92.92,0,0,0,206.3,90.71Zm-3.17-.21c.39.33.85.22,1.35-.13a1,1,0,0,0-.2-1.19.79.79,0,0,0-1.19.12A.81.81,0,0,0,203.13,90.5Z"/><rect class="cls-3" x="131.78" y="147.92" width="12.2" height="8.43" transform="translate(-67.33 158.76) rotate(-49.66)"/><rect class="cls-3" x="142.05" y="136.89" width="12.02" height="7.67" transform="matrix(0.65, -0.76, 0.76, 0.65, -55.05, 162.5)"/><rect class="cls-3" x="151.56" y="122.52" width="17.4" height="7.67" transform="translate(-39.79 166.73) rotate(-49.66)"/><rect class="cls-3" x="163.89" y="104.77" width="12.49" height="12.49" transform="translate(-24.61 168.84) rotate(-49.66)"/><path class="cls-3" d="M145.48,162.18a1.47,1.47,0,0,1-.28.47.94.94,0,0,1-1.43.1,1,1,0,0,1-.13-1.5,1.23,1.23,0,0,1,.38-.31l.13.19a.91.91,0,0,0-.33.26.75.75,0,0,0,.12,1.14.74.74,0,0,0,1.13-.06,1.12,1.12,0,0,0,.21-.38Z"/><path class="cls-3" d="M145.59,161.16l.35.58-.18.2-1.1-1.84.21-.24,2,.79-.18.21-.63-.25Zm.27-.64-.57-.22-.35-.16h0a3.62,3.62,0,0,1,.22.32l.32.53Z"/><path class="cls-3" d="M147.17,160.28,145.62,159l.19-.22,1.2.17a6,6,0,0,1,.74.15h0c-.22-.15-.41-.31-.65-.51l-.65-.55.16-.19,1.55,1.31-.17.21-1.21-.18c-.26,0-.52-.09-.76-.15h0c.2.15.39.31.65.53l.66.56Z"/><path class="cls-3" d="M148.13,157.28a.17.17,0,0,1,0-.26.18.18,0,0,1,.26,0,.17.17,0,0,1,0,.26A.17.17,0,0,1,148.13,157.28Zm.81.69a.17.17,0,0,1,0-.26.18.18,0,0,1,.26,0,.18.18,0,0,1-.23.27Z"/><path class="cls-5" d="M2,81a7.09,7.09,0,0,0,.16,10l84.34,81.07A7.2,7.2,0,0,0,96.62,172l45-46.3a7.1,7.1,0,0,0-.17-10L57.15,34.58a7.19,7.19,0,0,0-10.1.16Z"/><rect class="cls-3" x="103.82" y="72.26" width="5.6" height="47.6" transform="translate(-36.52 106.36) rotate(-46.13)"/><rect class="cls-3" x="62.11" y="43.02" width="5.6" height="26.45" transform="translate(-20.63 64.07) rotate(-46.14)"/><rect class="cls-6" x="96.93" y="124.1" width="2.92" height="26.05" transform="translate(-68.66 113.04) rotate(-46.13)"/><rect class="cls-6" x="75.61" y="103.66" width="2.92" height="25.93" transform="translate(-60.42 91.37) rotate(-46.14)"/><rect class="cls-6" x="54.28" y="82.99" width="2.92" height="26.27" transform="translate(-52.19 69.69) rotate(-46.13)"/><rect class="cls-6" x="33.88" y="63.83" width="2.92" height="25.37" transform="translate(-44.31 48.96) rotate(-46.13)"/><rect class="cls-6" x="100.58" y="143.22" width="1.57" height="7.86" transform="translate(-74.97 118.27) rotate(-46.14)"/><rect class="cls-6" x="62.36" y="104.84" width="2.03" height="40.87" transform="translate(-70.86 84.15) rotate(-46.13)"/><rect class="cls-6" x="66.93" y="116.91" width="1.71" height="58.01" transform="translate(-84.38 93.66) rotate(-46.13)"/><path class="cls-7" d="M101.69,121.37a3.87,3.87,0,0,0,.1,5.46l8.7,8.36a3.88,3.88,0,0,0,5.46-.11l4.69-4.89a3.86,3.86,0,0,0-.11-5.45l-8.7-8.36a3.86,3.86,0,0,0-5.45.11Z"/><path class="cls-8" d="M111,134.63a3.08,3.08,0,0,0,4.36-.09l4.69-4.88a3.08,3.08,0,0,0-.08-4.36l-8.7-8.37a3.09,3.09,0,0,0-4.37.09l-4.69,4.88a3.09,3.09,0,0,0,.09,4.37Z"/><polygon class="cls-9" points="13.8 95.62 13.49 95.32 13.21 95.01 12.95 94.68 12.7 94.35 12.47 94 12.27 93.65 12.08 93.29 11.91 92.92 11.76 92.55 11.62 92.17 11.51 91.79 11.41 91.4 11.34 91.01 11.28 90.62 11.24 90.22 11.22 89.83 11.22 89.43 11.24 89.03 11.27 88.64 11.33 88.25 11.4 87.85 11.5 87.47 11.61 87.08 11.74 86.7 11.89 86.33 12.06 85.96 12.25 85.6 12.46 85.25 12.69 84.91 12.94 84.57 13.2 84.25 13.49 83.93 13.79 83.64 14.1 83.36 14.42 83.09 14.75 82.85 15.09 82.63 15.44 82.43 15.8 82.24 16.16 82.07 16.53 81.93 16.91 81.8 17.29 81.69 17.68 81.59 18.07 81.52 18.46 81.47 18.85 81.43 19.25 81.41 19.65 81.42 20.04 81.44 20.44 81.48 20.83 81.53 21.22 81.61 21.61 81.71 21.99 81.83 22.38 81.96 22.75 82.11 23.12 82.28 23.48 82.48 23.83 82.69 24.18 82.92 24.51 83.16 24.84 83.43 25.16 83.72 25.46 84.02 25.74 84.33 26 84.66 26.25 84.99 26.47 85.33 26.68 85.69 26.87 86.05 27.04 86.41 27.19 86.78 27.32 87.16 27.44 87.54 27.53 87.93 27.61 88.32 27.66 88.71 27.7 89.1 27.72 89.5 27.72 89.89 27.7 90.29 27.67 90.68 27.61 91.08 27.54 91.47 27.44 91.85 27.33 92.23 27.2 92.61 27.05 92.98 26.88 93.35 26.69 93.71 26.48 94.06 26.26 94.4 26.01 94.73 25.75 95.05 25.47 95.37 25.16 95.67 24.85 95.95 24.53 96.21 24.2 96.45 23.86 96.68 23.51 96.88 23.15 97.07 22.78 97.24 22.41 97.39 22.03 97.52 21.65 97.63 21.26 97.73 20.88 97.8 20.48 97.86 20.09 97.89 19.69 97.91 19.3 97.91 18.9 97.89 18.5 97.85 18.11 97.8 17.72 97.72 17.33 97.63 16.95 97.51 16.57 97.38 16.2 97.22 15.83 97.06 15.47 96.86 15.12 96.65 14.77 96.42 14.44 96.18 14.11 95.91 13.8 95.62 13.8 95.62 13.8 95.62"/><polygon class="cls-9" points="21.81 103.27 21.51 102.97 21.23 102.66 20.96 102.33 20.72 102 20.49 101.66 20.29 101.31 20.1 100.95 19.93 100.58 19.78 100.21 19.64 99.83 19.53 99.45 19.44 99.06 19.36 98.67 19.3 98.28 19.27 97.89 19.25 97.49 19.25 97.09 19.27 96.69 19.3 96.3 19.36 95.91 19.44 95.52 19.53 95.13 19.64 94.75 19.78 94.37 19.93 94 20.1 93.63 20.29 93.27 20.5 92.92 20.73 92.58 20.97 92.24 21.24 91.92 21.52 91.6 21.82 91.31 22.13 91.03 22.45 90.77 22.78 90.52 23.12 90.3 23.47 90.1 23.83 89.91 24.19 89.74 24.56 89.59 24.94 89.46 25.32 89.35 25.71 89.26 26.1 89.18 26.49 89.13 26.88 89.09 27.28 89.08 27.67 89.08 28.07 89.1 28.46 89.14 28.86 89.19 29.25 89.27 29.63 89.37 30.01 89.48 30.39 89.61 30.77 89.77 31.14 89.94 31.5 90.13 31.85 90.34 32.19 90.57 32.53 90.81 32.86 91.08 33.17 91.37 33.47 91.67 33.76 91.98 34.02 92.31 34.27 92.64 34.49 92.99 34.7 93.34 34.89 93.7 35.06 94.06 35.21 94.44 35.34 94.82 35.46 95.2 35.56 95.59 35.63 95.98 35.69 96.37 35.73 96.77 35.75 97.16 35.75 97.56 35.73 97.95 35.7 98.35 35.64 98.74 35.57 99.13 35.48 99.52 35.36 99.9 35.23 100.28 35.08 100.65 34.91 101.02 34.73 101.38 34.52 101.73 34.29 102.07 34.05 102.4 33.78 102.72 33.5 103.04 33.2 103.34 32.89 103.62 32.57 103.88 32.23 104.12 31.89 104.35 31.54 104.55 31.18 104.74 30.82 104.91 30.44 105.06 30.07 105.19 29.68 105.3 29.29 105.39 28.9 105.47 28.51 105.52 28.12 105.56 27.72 105.57 27.32 105.57 26.93 105.55 26.53 105.51 26.14 105.46 25.75 105.38 25.36 105.28 24.97 105.17 24.59 105.03 24.22 104.88 23.85 104.71 23.49 104.52 23.14 104.31 22.79 104.07 22.45 103.83 22.13 103.56 21.81 103.27 21.81 103.27 21.81 103.27"/><path class="cls-3" d="M38.65,68.78a.91.91,0,0,0,.87-.08c.16-.12.22-.24.39-.8a13.08,13.08,0,0,1,3.31-5.7,12.9,12.9,0,0,1,5.32-3.42,5.88,5.88,0,0,0,.94-.4.93.93,0,0,0,.19-.76.89.89,0,0,0-.75-.63,5.17,5.17,0,0,0-.92.24,15.62,15.62,0,0,0-4.37,2.37,18.84,18.84,0,0,0-2.78,2.8,15.62,15.62,0,0,0-2.32,4.47c-.32,1-.38,1.44-.21,1.6a.85.85,0,0,1,.11.14.61.61,0,0,0,.22.17Z"/><path class="cls-3" d="M41.94,69.74a.83.83,0,0,0,1.06-.3c0-.08.18-.49.32-.92a9.89,9.89,0,0,1,3-4.53,9.66,9.66,0,0,1,3.37-2c1-.34,1.07-.43,1.13-.87a.84.84,0,0,0-.77-.9,10.46,10.46,0,0,0-2.58,1,11.84,11.84,0,0,0-5.5,6.27C41.4,68.87,41.4,69.46,41.94,69.74Z"/><path class="cls-3" d="M45.3,70.75a.94.94,0,0,0,.8-.1c.13-.09.21-.25.4-.87a6.68,6.68,0,0,1,4.31-4.53c1-.34,1.09-.46,1.07-1a.6.6,0,0,0-.24-.52c-.32-.3-.64-.3-1.49,0A7.89,7.89,0,0,0,47,65.84a7.62,7.62,0,0,0-2,3.3c-.26.81-.26,1.08,0,1.37a.88.88,0,0,0,.33.24Z"/><path class="cls-3" d="M48.44,71.69a1,1,0,0,0,.74-.08c.22-.13.32-.31.44-.85A3.48,3.48,0,0,1,52,68.28l.58-.2a.84.84,0,0,0,.2-1.16c-.23-.32-.53-.38-1.16-.23A4.9,4.9,0,0,0,48,70.47c-.13.64,0,1.06.44,1.22Z"/><rect class="cls-10" x="109.37" y="123.99" width="3.58" height="3.58" transform="translate(104.73 293.52) rotate(-136.33)"/><line class="cls-10" x1="115.63" y1="121.1" x2="112.4" y2="124.49"/><line class="cls-10" x1="109.93" y1="127.07" x2="106.68" y2="130.48"/><line class="cls-10" x1="117.77" y1="132.09" x2="112.45" y2="127.02"/><line class="cls-10" x1="109.87" y1="124.55" x2="104.56" y2="119.48"/><polyline class="cls-10" points="113.69 125.72 116.48 125.66 120.35 129.33"/><polyline class="cls-10" points="111.22 128.31 111.29 131.09 115.14 134.79"/><polyline class="cls-10" points="111.11 123.25 111.04 120.47 107.19 116.77"/><polyline class="cls-10" points="108.64 125.84 105.85 125.9 101.97 122.23"/><path class="cls-11" d="M150.79,0H68.43A14.91,14.91,0,0,0,53.56,14.88V218.64a13.05,13.05,0,0,0,13,13h86.08a13.06,13.06,0,0,0,13-13V14.88A14.92,14.92,0,0,0,150.79,0Z"/><g class="cls-12"><polygon class="cls-13" points="161.69 215.53 161.69 226.38 119.49 226.38 65.81 188.48 129.21 158.19 161.69 215.53"/><polygon class="cls-14" points="161.69 142.68 161.69 215.53 129.21 158.19 161.69 142.68"/><polygon class="cls-15" points="119.49 226.38 57.53 226.38 57.53 192.44 65.81 188.48 119.49 226.38"/><polygon class="cls-16" points="80.71 72.57 57.53 100.71 57.53 182.64 57.53 192.44 65.81 188.48 129.21 158.19 80.71 72.57"/><polygon class="cls-17" points="161.69 13.06 161.69 142.68 129.21 158.19 80.71 72.57 120.22 24.62 161.69 13.06"/><polygon class="cls-13" points="80.71 72.57 57.53 100.71 57.53 42.09 62.64 40.66 80.71 72.57"/><polygon class="cls-14" points="161.69 4.78 161.69 13.06 120.22 24.62 136.56 4.78 161.69 4.78"/><polygon class="cls-16" points="57.53 4.78 57.53 31.66 57.53 42.09 62.64 40.66 120.22 24.62 136.56 4.78 57.53 4.78"/><polygon class="cls-18" points="120.22 24.62 80.71 72.57 62.64 40.66 120.22 24.62"/><g id="Shape_1" data-name="Shape 1"><path class="cls-19" d="M78.48,58.26a12.72,12.72,0,0,0-2.19-1.94l-.16,1H71l.68-3.8H69.18L67.33,63.54h2.55l.53-3a1.09,1.09,0,0,1,.27-.62s.09-.19.44-.19h7.82A3,3,0,0,0,78.48,58.26Z"/></g><g id="Shape_1_copy" data-name="Shape 1 copy"><path class="cls-19" d="M76.32,60.52l-.53,3a1,1,0,0,1-.26.62s-.09.2-.44.2H67.26a3,3,0,0,0,.46,1.5,12.29,12.29,0,0,0,2.19,1.94l.16-1h5.54a3,3,0,0,0,1.85-.5c.47-.42.49-.64.63-1.38.32-1.82.79-4.38.79-4.38Z"/></g><path class="cls-19" d="M90.88,59.76c0,.09-.64,3.45-.64,3.45H81.82l-.15.85c-.07.26.25.28.61.28h7.78s-.17,1.53-.63,2a3,3,0,0,1-1.86.5l-6.29,0a3,3,0,0,1-1.82-.57A1.91,1.91,0,0,1,79,64.81l1.1-6a2,2,0,0,1,.72-1.2,3.73,3.73,0,0,1,2-.38h5.79a2.69,2.69,0,0,1,1.8.55A2.43,2.43,0,0,1,90.88,59.76Zm-7.82,0a.53.53,0,0,0-.53.37c-.12.29-.13.37-.19.54h5.08a1,1,0,0,0,.66-.19,1.15,1.15,0,0,0,.26-.72Z"/><path class="cls-19" d="M102.77,59.76c0,.09-.64,3.45-.64,3.45H93.71l-.16.85c-.07.26.25.28.61.28H102s-.17,1.53-.64,2a3,3,0,0,1-1.86.5l-6.29,0a3,3,0,0,1-1.82-.57,1.88,1.88,0,0,1-.42-1.42l1.09-6a2,2,0,0,1,.72-1.2,3.73,3.73,0,0,1,2-.38h5.79a2.72,2.72,0,0,1,1.81.55A2.47,2.47,0,0,1,102.77,59.76Zm-7.83,0a.53.53,0,0,0-.53.37c-.12.29-.13.37-.19.54h5.09a1,1,0,0,0,.65-.19,1.12,1.12,0,0,0,.27-.72Z"/><path class="cls-19" d="M114.65,59.76c0,.09-.64,3.45-.64,3.45L113.72,65a2.22,2.22,0,0,1-.61,1.24,3,3,0,0,1-1.77.5l-4.67,0H105l-.87,4.44h-2.56l1.19-6.43,1.09-6a2.09,2.09,0,0,1,.73-1.2,3.71,3.71,0,0,1,2-.38h5.78s1.29-.05,1.81.55A2.43,2.43,0,0,1,114.65,59.76Zm-7.82,0a.53.53,0,0,0-.53.37c-.12.29-.78,4-.84,4.16H110s.89.08,1.15-.19a2,2,0,0,0,.25-.76l.68-3.58Z"/><path class="cls-19" d="M126.81,59.76c0,.09-.64,3.45-.64,3.45l-.3,1.83a2.26,2.26,0,0,1-.6,1.24,3.09,3.09,0,0,1-1.78.5l-4.66,0H117.2l-.88,4.44h-2.55L115,64.81l1.09-6a2,2,0,0,1,.72-1.2,3.73,3.73,0,0,1,2-.38h5.79a2.72,2.72,0,0,1,1.81.55A2.47,2.47,0,0,1,126.81,59.76Zm-7.83,0a.53.53,0,0,0-.53.37c-.12.29-.77,4-.83,4.16h4.57s.88.08,1.14-.19a1.85,1.85,0,0,0,.25-.76l.69-3.58Z"/><path class="cls-19" d="M138.24,57.83a2.72,2.72,0,0,0-1.81-.55h-5.79a3.73,3.73,0,0,0-2,.38,2,2,0,0,0-.72,1.2l-1.09,6a1.84,1.84,0,0,0,.58,1.58,2.94,2.94,0,0,0,1.66.41h4.56l.5-2.48h-4.64c.06-.17.71-3.87.83-4.16a.53.53,0,0,1,.53-.37h5.29l-.69,3.58-.68,3.43h.1s2.51,0,2.51,0l.66-3.58s.62-3.36.64-3.45A2.47,2.47,0,0,0,138.24,57.83Z"/><path class="cls-19" d="M148.52,57.3,148,59.77l-.69,3.58a1.85,1.85,0,0,1-.25.76c-.25.27-1.14.19-1.14.19h-4.57c.06-.17.71-3.87.83-4.16l.54-2.84h-2.65l-1.38,7.51s-.12,1.17.58,1.58a3.26,3.26,0,0,0,1.66.41h1.63l4.07,0-.35,1.58a.84.84,0,0,1-.2.3.71.71,0,0,1-.45.08h-5.14l-.41,2.5h6.26a3.09,3.09,0,0,0,1.78-.5,2.27,2.27,0,0,0,.6-1.25l1.18-6.28L151,57.3Z"/><text class="cls-20" transform="translate(107.93 217.39)">V1.0</text><text class="cls-20" transform="translate(93.91 219.35)">© beeppay e<tspan class="cls-21" x="9.6" y="0">nt</tspan><tspan x="11.11" y="0">erprise. All Rig</tspan><tspan class="cls-22" x="21.7" y="0">h</tspan><tspan x="22.62" y="0">ts </tspan><tspan class="cls-23" x="24.37" y="0">R</tspan><tspan x="25.33" y="0">ese</tspan><tspan class="cls-24" x="27.79" y="0">r</tspan><tspan x="28.44" y="0">ved </tspan></text><text class="cls-25" transform="translate(89.93 74.63)">P<tspan class="cls-26" x="2.09" y="0">ayme</tspan><tspan class="cls-27" x="11.47" y="0">n</tspan><tspan class="cls-26" x="13.6" y="0">ts U</tspan><tspan class="cls-27" x="20.45" y="0">n</tspan><tspan class="cls-28" x="22.58" y="0">t</tspan><tspan class="cls-29" x="23.97" y="0">e</tspan><tspan class="cls-30" x="25.97" y="0">thered®</tspan></text><g id="Shape_1-2" data-name="Shape 1"><path class="cls-31" d="M79,57.33a13.07,13.07,0,0,0-2.2-1.94l-.16,1H71.5l.68-3.8H69.65L67.79,62.61h2.55l.54-3a1.06,1.06,0,0,1,.26-.62s.09-.19.44-.19H79.4A3,3,0,0,0,79,57.33Z"/></g><g id="Shape_1_copy-2" data-name="Shape 1 copy"><path class="cls-31" d="M76.79,59.59l-.53,3a1,1,0,0,1-.27.62s-.09.2-.44.2H67.72a3,3,0,0,0,.46,1.5,12.62,12.62,0,0,0,2.2,1.94l.16-1h5.53a3,3,0,0,0,1.86-.5c.46-.42.49-.64.62-1.38.32-1.82.79-4.38.79-4.38Z"/></g><path class="cls-31" d="M91.35,58.83c0,.08-.64,3.45-.64,3.45H82.29l-.15.85c-.08.26.24.28.61.28h7.78s-.17,1.53-.64,1.95a3,3,0,0,1-1.85.5l-6.3,0a3,3,0,0,1-1.82-.57,1.88,1.88,0,0,1-.42-1.42l1.09-6a2,2,0,0,1,.72-1.2,3.76,3.76,0,0,1,2-.38h5.78a2.72,2.72,0,0,1,1.81.55A2.47,2.47,0,0,1,91.35,58.83Zm-7.82,0a.55.55,0,0,0-.54.37c-.12.29-.13.37-.19.54h5.09a1,1,0,0,0,.65-.19,1.12,1.12,0,0,0,.27-.72Z"/><path class="cls-31" d="M103.23,58.83c0,.08-.64,3.45-.64,3.45H94.17l-.15.85c-.08.26.25.28.61.28h7.78s-.17,1.53-.64,1.95a3,3,0,0,1-1.85.5l-6.3,0a3,3,0,0,1-1.81-.57,1.91,1.91,0,0,1-.43-1.42l1.09-6a2.09,2.09,0,0,1,.73-1.2,3.73,3.73,0,0,1,2-.38H101s1.29-.05,1.81.55A2.43,2.43,0,0,1,103.23,58.83Zm-7.82,0a.53.53,0,0,0-.53.37c-.12.29-.14.37-.2.54h5.09a1,1,0,0,0,.65-.19,1.12,1.12,0,0,0,.27-.72Z"/><path class="cls-31" d="M115.11,58.83c0,.08-.63,3.45-.63,3.45l-.3,1.83a2.26,2.26,0,0,1-.6,1.24,3.09,3.09,0,0,1-1.78.5l-4.66,0h-1.63l-.88,4.44h-2.56l1.19-6.43,1.1-6a2,2,0,0,1,.72-1.2,3.73,3.73,0,0,1,2-.38h5.79a2.72,2.72,0,0,1,1.81.55A2.47,2.47,0,0,1,115.11,58.83Zm-7.82,0a.53.53,0,0,0-.53.37c-.12.29-.78,4-.84,4.16h4.58s.88.08,1.14-.19a1.85,1.85,0,0,0,.25-.76l.68-3.58Z"/><path class="cls-31" d="M127.27,58.83c0,.08-.64,3.45-.64,3.45l-.29,1.83a2.22,2.22,0,0,1-.61,1.24,3,3,0,0,1-1.77.5l-4.67,0h-1.63l-.87,4.44h-2.56l1.19-6.43,1.09-6a2.09,2.09,0,0,1,.73-1.2,3.71,3.71,0,0,1,2-.38H125s1.29-.05,1.81.55A2.43,2.43,0,0,1,127.27,58.83Zm-7.82,0a.53.53,0,0,0-.53.37c-.12.29-.78,4-.84,4.16h4.57s.89.08,1.15-.19a2,2,0,0,0,.25-.76l.68-3.58Z"/><path class="cls-31" d="M138.7,56.9c-.52-.6-1.81-.55-1.81-.55h-5.78a3.73,3.73,0,0,0-2,.38,2.09,2.09,0,0,0-.73,1.2l-1.09,6a1.84,1.84,0,0,0,.58,1.58,2.94,2.94,0,0,0,1.66.41h4.56l.5-2.49H130c.06-.17.72-3.87.84-4.16a.53.53,0,0,1,.53-.37h5.28l-.68,3.58-.68,3.43h.09s2.51,0,2.51,0l.66-3.58s.63-3.37.64-3.45A2.43,2.43,0,0,0,138.7,56.9Z"/><path class="cls-31" d="M149,56.37l-.48,2.47-.68,3.58a2,2,0,0,1-.25.76c-.26.27-1.15.19-1.15.19h-4.57c.06-.17.72-3.87.84-4.16l.54-2.84h-2.66l-1.38,7.51s-.12,1.17.58,1.58a3.26,3.26,0,0,0,1.66.41h1.64l4.07,0-.36,1.58a.51.51,0,0,1-.65.38H141l-.42,2.5h6.26a3.09,3.09,0,0,0,1.78-.5,2.27,2.27,0,0,0,.6-1.25l1.18-6.28,1.1-5.91Z"/></g><path class="cls-32" d="M138.3,5.31v1.4a7.66,7.66,0,0,1-7.64,7.64H88.56a7.67,7.67,0,0,1-7.64-7.64V5.31Z"/><rect class="cls-11" x="75.98" y="98.02" width="67.26" height="74.23"/><g id="A"><path class="cls-33" d="M101,126.49H79.35V104.87H101Zm-17.29-4.32h13v-13h-13Zm8.65-4.33H88v-4.32h4.33Z"/></g><g id="A-2" data-name="A"><path class="cls-33" d="M139.88,126.49H118.26V104.87h21.62Zm-17.3-4.32h13v-13h-13Zm8.65-4.33h-4.32v-4.32h4.32Z"/></g><g id="A-3" data-name="A"><path class="cls-33" d="M101,165.4H79.35V143.78H101Zm-17.29-4.32h13v-13h-13Zm8.65-4.33H88v-4.32h4.33Z"/></g><polygon class="cls-33" points="109.61 130.81 105.29 130.81 105.29 122.17 109.61 122.17 109.61 117.84 105.29 117.84 105.29 104.87 113.94 104.87 113.94 109.19 109.61 109.19 109.61 113.52 113.94 113.52 113.94 126.49 109.61 126.49 109.61 130.81"/><path class="cls-33" d="M139.88,135.14h-4.33v-4.33h4.33Zm-13,0h-8.65v-4.33h8.65Zm-13,0h-4.33v-4.33h4.33Zm-17.3,0H88v-4.33h8.65Zm-13,0H79.35v-4.33h4.32Z"/><path class="cls-33" d="M139.88,139.46h-8.65v-4.32h8.65Zm-13,0h-4.33v-4.32h4.33Zm-17.3,0H92.32v-4.32h17.29Zm-21.62,0H83.67v-4.32H88Z"/><path class="cls-33" d="M135.55,143.78h-4.32v-4.32h4.32Zm-17.29,0h-4.32v-4.32h4.32Zm-8.65,0h-4.32v-4.32h4.32Z"/><path class="cls-33" d="M135.55,148.11H118.26v-4.33h17.29Zm-21.61,0h-4.33v-4.33h4.33Z"/><path class="cls-33" d="M139.88,152.43h-4.33v-4.32h4.33Zm-8.65,0h-4.32v-4.32h4.32Zm-13,0h-4.32v-4.32h4.32Zm-8.65,0h-4.32v-4.32h4.32Z"/><path class="cls-33" d="M135.55,156.75h-8.64v-4.32h8.64Zm-13,0h-4.32v-4.32h4.32Zm-8.64,0h-8.65v-4.32h8.65Z"/><path class="cls-33" d="M139.88,161.08h-4.33v-4.33h4.33Zm-13,0h-4.33v-4.33h4.33Zm-17.3,0h-4.32v-4.33h4.32Z"/><path class="cls-33" d="M135.55,165.4h-4.32v-4.32h4.32Zm-8.64,0h-17.3v-4.32h17.3Z"/></g></g></svg>