<svg xmlns="http://www.w3.org/2000/svg" viewBox="0 0 507.68 507.39"><defs><style>.cls-1{fill:#058b8e;}.cls-1,.cls-2,.cls-3,.cls-4{stroke:#fff;stroke-linecap:round;stroke-linejoin:round;stroke-width:3.68px;}.cls-2{fill:#444142;}.cls-3{fill:#62c5c1;}.cls-4{fill:#ef7070;}</style></defs><title>Jigsaw2</title><g id="Layer_2" data-name="Layer 2"><g id="Layer_1-2" data-name="Layer 1"><path class="cls-1" d="M309.13,14.68A32.23,32.23,0,0,0,299.84,41l-34-34a17.62,17.62,0,0,0-24.92,0L207.08,40.81A32.38,32.38,0,1,0,178,69.9l-33.83,33.82a17.62,17.62,0,0,0,0,24.92l25.56,25.56c.33-.36.62-.73,1-1.08a32.36,32.36,0,0,1,45.76,45.76c-.35.34-.72.63-1.08,1l25.55,25.55a17.62,17.62,0,0,0,24.92,0l34-34a32.38,32.38,0,1,0,28.75-28.74l34-34a17.62,17.62,0,0,0,0-24.92l-34-34a32.35,32.35,0,1,0-19.41-55Z"/><path class="cls-2" d="M493,309.78a32.23,32.23,0,0,0-26.34-9.29l34-34a17.64,17.64,0,0,0,0-24.93l-33.81-33.81a32.38,32.38,0,1,0-29.09-29.08L404,144.82a17.64,17.64,0,0,0-24.93,0l-25.55,25.56c.35.33.73.62,1.08,1A32.35,32.35,0,1,1,308.8,217.1c-.35-.34-.64-.72-1-1.08l-25.55,25.55a17.62,17.62,0,0,0,0,24.92l34,34A32.36,32.36,0,1,0,345,329.22l34,34a17.62,17.62,0,0,0,24.92,0l34-34a32.35,32.35,0,1,0,55-19.41Z"/><path class="cls-3" d="M198.83,492.71a32.24,32.24,0,0,0,9.3-26.35l34,34a17.62,17.62,0,0,0,24.92,0l33.81-33.81A32.39,32.39,0,1,0,330,437.49l33.82-33.82a17.62,17.62,0,0,0,0-24.92l-25.56-25.56c-.32.36-.61.73-1,1.08a32.36,32.36,0,0,1-45.76-45.76c.35-.34.73-.63,1.08-1L267.05,282a17.64,17.64,0,0,0-24.93,0l-34,34a32.37,32.37,0,1,0-28.74,28.74l-34,34a17.62,17.62,0,0,0,0,24.92l34,34a32.36,32.36,0,1,0,19.4,55Z"/><path class="cls-4" d="M14.68,197.32A32.23,32.23,0,0,0,41,206.61l-34,34a17.62,17.62,0,0,0,0,24.92l33.81,33.81A32.38,32.38,0,1,0,69.9,328.45l33.82,33.83a17.62,17.62,0,0,0,24.92,0l25.56-25.56c-.36-.33-.73-.62-1.08-1A32.35,32.35,0,0,1,198.88,290c.34.34.63.72,1,1.08l25.55-25.55a17.62,17.62,0,0,0,0-24.92l-34-34a32.37,32.37,0,1,0-28.74-28.74l-34-34a17.62,17.62,0,0,0-24.92,0l-34,34a32.35,32.35,0,1,0-55,19.41Z"/></g></g></svg>