<svg xmlns="http://www.w3.org/2000/svg" viewBox="0 0 507.56 508.65"><defs><style>.cls-1{fill:#add8cc;}.cls-1,.cls-2,.cls-3,.cls-4,.cls-5{stroke:#fff;stroke-linecap:round;stroke-linejoin:round;stroke-width:3.57px;}.cls-2{fill:#058a8d;}.cls-3{fill:#ef7070;}.cls-4{fill:#4fefd4;}.cls-5{fill:#444142;}</style></defs><title>Jigsaw3</title><g id="Layer_2" data-name="Layer 2"><g id="Layer_1-2" data-name="Layer 1"><path class="cls-1" d="M306.75,423.57,270,386.82l45.09-45.1A31.4,31.4,0,1,1,342.78,314l45.11-45.09,36.76,36.75A31.39,31.39,0,0,0,469,350.07l36.74,36.75-45.09,45.1A31.38,31.38,0,1,1,433,459.62l-45.11,45.1L351.15,468a31.39,31.39,0,0,0-44.4-44.39Z"/><path class="cls-2" d="M39.6,156.43,2.86,119.68,48,74.57A31.39,31.39,0,1,1,75.64,46.88l45.1-45.1,36.77,36.76a31.38,31.38,0,0,0,44.38,44.38l36.75,36.76-45.09,45.1a31.39,31.39,0,1,1-27.69,27.7l-45.12,45.09L84,200.82a31.39,31.39,0,1,0-44.4-44.39Z"/><path class="cls-3" d="M306.74,157.51,270,120.75l45.09-45.1A31.38,31.38,0,1,1,342.79,48l45.1-45.1,36.76,36.75A31.39,31.39,0,0,0,469,84l36.74,36.75-45.09,45.11A31.39,31.39,0,1,1,433,193.55l-45.1,45.1L351.13,201.9a31.39,31.39,0,1,0-44.39-44.39Z"/><path class="cls-4" d="M38.52,425.73,1.78,389l45.09-45.1a31.38,31.38,0,1,1,27.7-27.69l45.1-45.1,36.76,36.76a31.39,31.39,0,0,0,44.39,44.38L237.56,389l-45.09,45.11a31.39,31.39,0,1,1-27.7,27.69l-45.1,45.1L82.91,470.12a31.39,31.39,0,0,0-44.39-44.39Z"/><path class="cls-5" d="M219.22,172.68,256,135.93,301.07,181a31.38,31.38,0,1,1,27.69,27.7l45.11,45.1-36.76,36.75A31.39,31.39,0,0,0,292.72,335L256,371.72l-45.09-45.1a31.4,31.4,0,1,1-27.7-27.7l-45.1-45.1,36.76-36.76a31.38,31.38,0,0,0,44.39-44.38Z"/></g></g></svg>