<svg xmlns="http://www.w3.org/2000/svg" viewBox="0 0 496.87 495.09"><defs><style>.cls-1{fill:#058b8e;}.cls-1,.cls-2,.cls-3,.cls-4{stroke:#fff;stroke-linecap:round;stroke-linejoin:round;stroke-width:3.76px;}.cls-2{fill:#444142;}.cls-3{fill:#62c5c1;}.cls-4{fill:#ef7070;}</style></defs><title>Jigsaw1</title><g id="Layer_2" data-name="Layer 2"><g id="Layer_1-2" data-name="Layer 1"><path class="cls-1" d="M115.76,35A32.88,32.88,0,0,0,128.08,60.7H78.9a18,18,0,0,0-18,18v48.88a33.09,33.09,0,1,0,0,42v48.89a18,18,0,0,0,18,18h36.94c0-.49-.08-1-.08-1.48a33.07,33.07,0,1,1,66.14,0c0,.5-.06,1-.09,1.48h36.93a18,18,0,0,0,18-18V169.4a33.09,33.09,0,1,0,0-41.55V78.71a18,18,0,0,0-18-18H169.57A33.07,33.07,0,1,0,115.76,35Z"/><path class="cls-2" d="M461.92,115.34a32.92,32.92,0,0,0-25.75,12.33V78.48a18,18,0,0,0-18-18H369.28a33.09,33.09,0,1,0-42,0H278.35a18,18,0,0,0-18,18v37c.49,0,1-.09,1.48-.09a33.07,33.07,0,1,1,0,66.14c-.5,0-1-.06-1.48-.08v36.93a18,18,0,0,0,18,18h49.12a33.09,33.09,0,1,0,41.55,0h49.13a18,18,0,0,0,18-18V169.15a33.07,33.07,0,1,0,25.75-53.81Z"/><path class="cls-3" d="M381.53,460.15a33,33,0,0,0-12.33-25.76h49.18a18,18,0,0,0,18-18V367.51a33.1,33.1,0,1,0,0-42V276.58a18,18,0,0,0-18-18H381.44c0,.5.09,1,.09,1.48a33.07,33.07,0,0,1-66.14,0c0-.5.06-1,.08-1.48H278.54a18,18,0,0,0-18,18V325.7a33.09,33.09,0,1,0,0,41.55v49.13a18,18,0,0,0,18,18h49.18a33.07,33.07,0,1,0,53.81,25.76Z"/><path class="cls-4" d="M35,379.75A32.91,32.91,0,0,0,60.7,367.43v49.18a18,18,0,0,0,18,18h48.88a33.09,33.09,0,1,0,42,0h48.89a18,18,0,0,0,18-18V379.67c-.49,0-1,.08-1.48.08a33.07,33.07,0,0,1,0-66.14c.5,0,1,.06,1.48.09V276.77a18,18,0,0,0-18-18H169.4a33.09,33.09,0,1,0-41.55,0H78.71a18,18,0,0,0-18,18v49.17A33.07,33.07,0,1,0,35,379.75Z"/></g></g></svg>