<svg xmlns="http://www.w3.org/2000/svg" viewBox="0 0 437.53 467.46"><defs><style>.cls-1{fill:#fff;}.cls-2{fill:#058a8d;}</style></defs><title>ReaderIcon</title><g id="Layer_2" data-name="Layer 2"><g id="Layer_1-2" data-name="Layer 1"><path class="cls-1" d="M4.24,119.12H257.48a0,0,0,0,1,0,0V376.55a52.23,52.23,0,0,1-52.23,52.23H56.47A52.23,52.23,0,0,1,4.24,376.55V119.12a0,0,0,0,1,0,0Z"/><path class="cls-2" d="M205.26,433H56.47A56.54,56.54,0,0,1,0,376.55V119.12a4.24,4.24,0,0,1,4.24-4.25H257.48a4.25,4.25,0,0,1,4.25,4.25V376.55A56.54,56.54,0,0,1,205.26,433ZM8.48,123.36V376.55a48,48,0,0,0,48,48H205.26a48,48,0,0,0,48-48V123.36Z"/><rect class="cls-2" x="35.42" y="43.35" width="190.89" height="75.77"/><path class="cls-2" d="M226.31,123.36H35.42a4.24,4.24,0,0,1-4.24-4.24V43.35a4.24,4.24,0,0,1,4.24-4.25H226.31a4.24,4.24,0,0,1,4.24,4.25v75.77A4.24,4.24,0,0,1,226.31,123.36ZM39.66,114.87H222.07V47.58H39.66Z"/><polygon class="cls-1" points="195.06 20.66 179.03 4.24 163 20.66 146.96 4.24 130.93 20.66 114.89 4.24 98.86 20.66 82.83 4.24 66.8 20.66 50.77 4.24 50.77 119.11 210.96 119.11 210.96 4.38 195.06 20.66"/><path class="cls-2" d="M211,123.36H50.76a4.24,4.24,0,0,1-4.24-4.24V4.24a4.24,4.24,0,0,1,7.28-3l13,13.31,13-13.31a4.21,4.21,0,0,1,3-1.28h0a4.25,4.25,0,0,1,3,1.28l13,13.31,13-13.31a4.38,4.38,0,0,1,6.07,0l13,13.31,13-13.31A4.21,4.21,0,0,1,147,0h0a4.25,4.25,0,0,1,3,1.28l13,13.31L176,1.28a4.38,4.38,0,0,1,6.07,0l13,13.31L207.93,1.41a4.24,4.24,0,0,1,7.27,3V119.12A4.24,4.24,0,0,1,211,123.36ZM55,114.87H206.72V14.79l-8.63,8.83a4.23,4.23,0,0,1-3,1.28h0a4.25,4.25,0,0,1-3-1.28L179,10.31,166,23.62a4.36,4.36,0,0,1-6.07,0L147,10.31,134,23.62a4.36,4.36,0,0,1-6.07,0l-13-13.31-13,13.31a4.36,4.36,0,0,1-6.07,0l-13-13.31-13,13.31a4.21,4.21,0,0,1-3,1.28h0a4.25,4.25,0,0,1-3-1.28l-8.75-9Z"/><path class="cls-2" d="M190.64,53.07h-126a4.24,4.24,0,0,1,0-8.48h126a4.24,4.24,0,1,1,0,8.48Z"/><path class="cls-2" d="M147.55,71.58H64.68a4.24,4.24,0,0,1,0-8.48h82.87a4.24,4.24,0,0,1,0,8.48Z"/><path class="cls-2" d="M171.63,90.09H64.68a4.24,4.24,0,1,1,0-8.48h107a4.24,4.24,0,1,1,0,8.48Z"/><path class="cls-2" d="M124.49,108.6H64.68a4.25,4.25,0,0,1,0-8.49h59.81a4.25,4.25,0,0,1,0,8.49Z"/><path class="cls-1" d="M52,139.5H33.76a11.37,11.37,0,0,0-11.37,11.37v3.42a11.37,11.37,0,0,0,11.37,11.37H52a11.37,11.37,0,0,0,11.37-11.37v-3.42A11.37,11.37,0,0,0,52,139.5Z"/><path class="cls-2" d="M52,169.9H33.76a15.63,15.63,0,0,1-15.62-15.61v-3.42a15.63,15.63,0,0,1,15.62-15.61H52a15.62,15.62,0,0,1,15.61,15.61v3.42A15.62,15.62,0,0,1,52,169.9ZM33.76,143.74a7.13,7.13,0,0,0-7.13,7.13v3.42a7.13,7.13,0,0,0,7.13,7.13H52a7.14,7.14,0,0,0,7.13-7.13v-3.42A7.14,7.14,0,0,0,52,143.74Z"/><path class="cls-1" d="M110.67,139.5H92.41A11.37,11.37,0,0,0,81,150.87v3.42a11.37,11.37,0,0,0,11.37,11.37h18.26A11.37,11.37,0,0,0,122,154.29v-3.42A11.37,11.37,0,0,0,110.67,139.5Z"/><path class="cls-2" d="M110.67,169.9H92.41a15.63,15.63,0,0,1-15.62-15.61v-3.42a15.63,15.63,0,0,1,15.62-15.61h18.26a15.62,15.62,0,0,1,15.61,15.61v3.42A15.62,15.62,0,0,1,110.67,169.9ZM92.41,143.74a7.14,7.14,0,0,0-7.13,7.13v3.42a7.14,7.14,0,0,0,7.13,7.13h18.26a7.14,7.14,0,0,0,7.13-7.13v-3.42a7.14,7.14,0,0,0-7.13-7.13Z"/><path class="cls-1" d="M169.32,139.5H151.06a11.37,11.37,0,0,0-11.37,11.37v3.42a11.37,11.37,0,0,0,11.37,11.37h18.26a11.37,11.37,0,0,0,11.37-11.37v-3.42A11.37,11.37,0,0,0,169.32,139.5Z"/><path class="cls-2" d="M169.32,169.9H151.06a15.63,15.63,0,0,1-15.62-15.61v-3.42a15.63,15.63,0,0,1,15.62-15.61h18.26a15.63,15.63,0,0,1,15.62,15.61v3.42A15.63,15.63,0,0,1,169.32,169.9Zm-18.26-26.16a7.14,7.14,0,0,0-7.13,7.13v3.42a7.14,7.14,0,0,0,7.13,7.13h18.26a7.14,7.14,0,0,0,7.13-7.13v-3.42a7.14,7.14,0,0,0-7.13-7.13Z"/><path class="cls-1" d="M228,139.5H209.71a11.38,11.38,0,0,0-11.38,11.37v3.42a11.38,11.38,0,0,0,11.38,11.37H228a11.37,11.37,0,0,0,11.37-11.37v-3.42A11.37,11.37,0,0,0,228,139.5Z"/><path class="cls-2" d="M228,169.9H209.71a15.63,15.63,0,0,1-15.62-15.61v-3.42a15.63,15.63,0,0,1,15.62-15.61H228a15.62,15.62,0,0,1,15.61,15.61v3.42A15.62,15.62,0,0,1,228,169.9Zm-18.26-26.16a7.13,7.13,0,0,0-7.13,7.13v3.42a7.13,7.13,0,0,0,7.13,7.13H228a7.14,7.14,0,0,0,7.13-7.13v-3.42a7.14,7.14,0,0,0-7.13-7.13Z"/><rect class="cls-1" x="28.9" y="192.29" width="203.92" height="94.27"/><path class="cls-2" d="M232.82,290.8H28.9a4.24,4.24,0,0,1-4.24-4.24V192.29a4.24,4.24,0,0,1,4.24-4.24H232.82a4.24,4.24,0,0,1,4.25,4.24v94.27A4.24,4.24,0,0,1,232.82,290.8ZM33.14,282.32H228.58V196.53H33.14Z"/><path class="cls-2" d="M45.12,237.28,43.2,239.2H41.41l0-13.39,1.9-1.91,1.84,1.86Zm-.09,18-1.81,1.85-1.85-1.86V239.65h1.76l1.94,2Zm14-15.83-1.86,1.86H45.48l-1.85-1.86,1.81-1.85H57.15Zm0-15.81-1.86,1.85H45.52l-1.85-1.85,1.86-1.86H57.15Zm2.21,15.59H59.39l-2-2,0-11.42,1.83-1.89,1.92,1.91Zm-.05.44.05,15.6-1.88,1.86-1.86-1.9,0-13.58,1.93-2Z"/><path class="cls-2" d="M67.74,255.2l-1.88,1.9L64,255.24v-15.6h1.75l2,2Zm.05-18-2,2H64l0-17.1,3.74,3.71Zm13.83-13.61-1.81,1.85H68.1l-3.7-3.71H79.77Zm0,15.81-1.87,1.86H68.1l-1.85-1.86,1.86-1.85H79.78Zm2.16-2.16L82,239.07l-1.86-1.85V225.81l1.87-1.9,1.88,1.86Z"/><path class="cls-2" d="M90.37,255.2l-1.88,1.9-1.87-1.86v-15.6h1.75l2,2Zm0-18-2,2H86.67l0-17.1,3.74,3.71Zm13.83-13.61-1.82,1.85H90.72L87,221.75H102.4Zm0,15.81-1.86,1.86H90.72l-1.85-1.86,1.87-1.85H102.4Zm2.17-2.16-1.84,1.81-1.86-1.85,0-11.41,1.88-1.9,1.87,1.86Z"/><path class="cls-2" d="M113,255.2l-1.88,1.9-1.87-1.86v-15.6H111l2,2Zm.05-18-2,2h-1.79l0-17.1,3.74,3.71Zm13.83-13.61-1.82,1.85h-11.7l-3.7-3.71H125Zm0,15.81L125,241.28H113.35l-1.85-1.86,1.86-1.85H125ZM129,257.1H125.9l-12.42-13.25,0-2.08h3L129,255.13Zm0-19.84-1.83,1.81-1.87-1.85V225.81l1.88-1.9,1.87,1.86Z"/><path class="cls-2" d="M135.44,253.09l-1.81,1.84-1.85-1.85,0-13.43h1.76l1.94,2Zm.06-15.84-1.93,1.95H131.8V225.77l1.82-1.86,1.84,1.85Zm13.78,18-1.87,1.86H135.8l-1.86-1.86,1.86-1.85h11.63Zm0-31.63-1.87,1.85H135.84L134,223.61l1.87-1.86h11.62Zm2.13,29.47-1.82,1.85-1.85-1.84,0-11.49,1.93-2h1.77Zm0-27.31V239.2h-1.76l-2-2,.06-11.48,1.81-1.85Z"/><path class="cls-2" d="M163.06,257.1h-1.68l-7.92-15.25v-2.21h3.11l6.51,12.91Zm-5.82-19.45-.85,1.55h-2.9l0-15.59,1.89-1.86,1.86,1.89Zm15.93,4.2-7.95,15.25h-1.68l0-4.64L170,239.64h3.09Zm0-18.24V239.2H170.3l-.83-1.5.05-14.1,1.82-1.85Z"/><path class="cls-2" d="M181.71,253l-1.88,1.89L178,253.08l.06-13.43h1.73l2,2Zm0-15.83-2,2H178V225.77l1.88-1.86,1.82,1.9Zm13.72,18-1.82,1.86H182l-1.85-1.86,1.86-1.85H193.6Zm-2.6-15.82L191,241.28H182l-1.85-1.86,1.81-1.85H191Zm2.65-15.81-1.87,1.85H182l-1.85-1.85,1.86-1.86h11.63Z"/><path class="cls-2" d="M203.65,237.2l-2,2h-1.81l.08-17.09,3.7,3.66Zm0,15.85-3.76,3.69,0-17.1h1.76l2,2Zm13.84,2.19-1.86,1.86H200.22l3.68-3.71h11.71Zm0-31.63-1.82,1.85H203.93l-3.7-3.71h15.38Zm2.17,29.47-1.88,1.85L215.88,253V241.65l2-2h1.79Zm0-27.31-.06,13.43h-1.77l-1.93-2V225.81l1.88-1.9Z"/><path class="cls-1" d="M349.67,234.1a14.21,14.21,0,0,0-20.1,0L204.18,359.5a14.2,14.2,0,0,0,0,20.09l7.49,7.5L357.16,241.6Z"/><path class="cls-2" d="M211.67,391.33a4.24,4.24,0,0,1-3-1.25l-7.49-7.49a18.46,18.46,0,0,1,0-26.09L326.57,231.1a18.44,18.44,0,0,1,26.1,0l7.49,7.5a4.24,4.24,0,0,1,0,6L214.67,390.08A4.23,4.23,0,0,1,211.67,391.33Zm128-157.15a9.92,9.92,0,0,0-7.05,2.92L207.18,362.49a10,10,0,0,0,0,14.1l4.49,4.5L351.16,241.6l-4.49-4.5A9.92,9.92,0,0,0,339.62,234.18Z"/><path class="cls-1" d="M429.13,313.56l-51.38-51.37L232.26,407.67l51.38,51.38a14.21,14.21,0,0,0,20.1,0L429.13,333.66A14.21,14.21,0,0,0,429.13,313.56Z"/><path class="cls-2" d="M293.69,467.46a18.34,18.34,0,0,1-13.05-5.4l-51.38-51.38a4.25,4.25,0,0,1,0-6L374.75,259.19a4.24,4.24,0,0,1,6,0l51.38,51.38a18.46,18.46,0,0,1,0,26.09L306.74,462.05A18.33,18.33,0,0,1,293.69,467.46Zm-55.43-59.79,48.38,48.39a10,10,0,0,0,14.1,0l125.39-125.4a10,10,0,0,0,0-14.1l-48.38-48.38Z"/><rect class="cls-2" x="191.83" y="310.08" width="205.75" height="29.12" transform="translate(-143.23 303.47) rotate(-45)"/><path class="cls-2" d="M232.26,411.92a4.27,4.27,0,0,1-3-1.24l-20.59-20.6a4.22,4.22,0,0,1,0-6L354.16,238.6a4.24,4.24,0,0,1,6,0l20.59,20.59a4.22,4.22,0,0,1,0,6L235.26,410.68A4.27,4.27,0,0,1,232.26,411.92Zm-14.59-24.83,14.59,14.59L371.75,262.19l-14.59-14.6Z"/><path class="cls-2" d="M340.4,318.67l-2-2a1.51,1.51,0,0,0-2.14,0l-87.42,87.42a1.53,1.53,0,0,0,0,2.15l2,2a1.53,1.53,0,0,0,2.15,0l87.42-87.42A1.51,1.51,0,0,0,340.4,318.67Z"/><path class="cls-2" d="M330,347.11l-2-2a1.51,1.51,0,0,0-2.14,0l-68,68a1.51,1.51,0,0,0,0,2.14l2,2a1.51,1.51,0,0,0,2.14,0l68-68A1.51,1.51,0,0,0,330,347.11Z"/><path class="cls-2" d="M317.6,376.77l-2-2a1.51,1.51,0,0,0-2.14,0l-47,47a1.51,1.51,0,0,0,0,2.14l2,2a1.51,1.51,0,0,0,2.14,0l47-47A1.53,1.53,0,0,0,317.6,376.77Z"/><path class="cls-2" d="M168.25,346.47a4.23,4.23,0,0,1-3-1.27c-8.28-8.4-20.81-13.23-34.36-13.23S104.79,336.8,96.5,345.2a4.24,4.24,0,1,1-6-5.95c9.87-10,24.6-15.76,40.4-15.76s30.53,5.74,40.41,15.76a4.24,4.24,0,0,1-3,7.22Z"/><path class="cls-2" d="M157.22,361.31a4.22,4.22,0,0,1-3-1.26c-5.61-5.69-14.12-8.95-23.34-8.95s-17.72,3.26-23.33,8.95a4.24,4.24,0,1,1-6-6c7.19-7.29,17.9-11.48,29.37-11.48s22.19,4.19,29.38,11.48a4.24,4.24,0,0,1-3,7.22Z"/><path class="cls-2" d="M143,375.55a4.24,4.24,0,0,1-3-1.26,13.84,13.84,0,0,0-18.31,0,4.24,4.24,0,1,1-6-6,22.27,22.27,0,0,1,30.39,0,4.24,4.24,0,0,1-3,7.22Z"/><path class="cls-2" d="M138.47,389.6a7.61,7.61,0,1,1-7.61-7.61A7.61,7.61,0,0,1,138.47,389.6Z"/></g></g></svg>